<?xml version="1.0" encoding="utf-8"?>
<!-- Generator: Adobe Illustrator 16.0.0, SVG Export Plug-In . SVG Version: 6.00 Build 0)  -->
<!DOCTYPE svg PUBLIC "-//W3C//DTD SVG 1.1//EN" "http://www.w3.org/Graphics/SVG/1.1/DTD/svg11.dtd">
<svg version="1.1" id="Layer_1" xmlns="http://www.w3.org/2000/svg" xmlns:xlink="http://www.w3.org/1999/xlink" x="0px" y="0px"
	 width="360px" height="360px" viewBox="0 0 360 360" enable-background="new 0 0 360 360" xml:space="preserve">
<path fill="none" stroke="#000000" stroke-miterlimit="10" d="M180,279.666c0,0,1.666-46.667-4.667-61
	C169,204.333,151,183.333,116.667,183.333S65.334,188,65.334,188s-27.195,12.47-17.667-44.333
	c3.78-22.532,5.171-43.032,5.171-43.032S58.114,79.166,67,67.666c5.667-7.333,34.92-12.333,34.92-12.333S125.001,51,143.667,57
	s28.332-4.333,35.333-4.333S197.333,60,206.667,60s16.333-6.333,27-6.333s72.272,6.572,80.667,20
	c13.334,21.331-5.333,25.998-6,46.667c0,0,1.666,29.001,11.333,45.833s-2.667,13.831-5,23.498s10.001,45.666,5.667,56
	S301,260.001,301.667,279.666s18.333,22.999,7,33.665s-33.334,10.334-48.667,11s-55.956-4.016-67.333-14.667
	C177,294.997,180,279.666,180,279.666z"/>
</svg>
